<?xml version="1.0" standalone="no"?><!DOCTYPE svg PUBLIC "-//W3C//DTD SVG 1.1//EN" "http://www.w3.org/Graphics/SVG/1.1/DTD/svg11.dtd"><svg t="1636192961316" class="icon" viewBox="0 0 1024 1024" version="1.1" xmlns="http://www.w3.org/2000/svg" p-id="2939" xmlns:xlink="http://www.w3.org/1999/xlink" width="128" height="128"><defs><style type="text/css"></style></defs><path d="M153.6 153.6m81.92 0l552.96 0q81.92 0 81.92 81.92l0 552.96q0 81.92-81.92 81.92l-552.96 0q-81.92 0-81.92-81.92l0-552.96q0-81.92 81.92-81.92Z" fill="#713A91" p-id="2940"></path><path d="M296.96 358.4a61.44 61.44 0 0 1 61.44-61.44h307.2a61.44 61.44 0 0 1 61.44 61.44v307.2a61.44 61.44 0 0 1-61.44 61.44H358.4a61.44 61.44 0 0 1-61.44-61.44V358.4z" fill="#BC7ABC" p-id="2941"></path><path d="M286.72 30.72a40.96 40.96 0 0 0-40.96 40.96v81.92h81.92V71.68a40.96 40.96 0 0 0-40.96-40.96z m153.6 0a40.96 40.96 0 0 0-40.96 40.96v81.92h81.92V71.68a40.96 40.96 0 0 0-40.96-40.96z m112.64 40.96a40.96 40.96 0 0 1 81.92 0v81.92h-81.92V71.68z m194.56-40.96a40.96 40.96 0 0 0-40.96 40.96v81.92h81.92V71.68a40.96 40.96 0 0 0-40.96-40.96zM30.72 286.72a40.96 40.96 0 0 1 40.96-40.96h81.92v81.92H71.68a40.96 40.96 0 0 1-40.96-40.96z m0 153.6a40.96 40.96 0 0 1 40.96-40.96h81.92v81.92H71.68a40.96 40.96 0 0 1-40.96-40.96z m40.96 112.64a40.96 40.96 0 0 0 0 81.92h81.92v-81.92H71.68zM30.72 747.52a40.96 40.96 0 0 1 40.96-40.96h81.92v81.92H71.68a40.96 40.96 0 0 1-40.96-40.96z m962.56-460.8a40.96 40.96 0 0 0-40.96-40.96h-81.92v81.92h81.92a40.96 40.96 0 0 0 40.96-40.96z m0 153.6a40.96 40.96 0 0 0-40.96-40.96h-81.92v81.92h81.92a40.96 40.96 0 0 0 40.96-40.96z m-40.96 112.64a40.96 40.96 0 0 1 0 81.92h-81.92v-81.92h81.92z m40.96 194.56a40.96 40.96 0 0 0-40.96-40.96h-81.92v81.92h81.92a40.96 40.96 0 0 0 40.96-40.96zM245.76 952.32a40.96 40.96 0 0 0 81.92 0v-81.92h-81.92v81.92z m153.6 0a40.96 40.96 0 0 0 81.92 0v-81.92h-81.92v81.92z m194.56 40.96a40.96 40.96 0 0 1-40.96-40.96v-81.92h81.92v81.92a40.96 40.96 0 0 1-40.96 40.96z m112.64-40.96a40.96 40.96 0 0 0 81.92 0v-81.92h-81.92v81.92z" fill="#A349A4" p-id="2942"></path></svg>