<?xml version="1.0" encoding="UTF-8" standalone="no"?>
<svg
   xmlns:dc="http://purl.org/dc/elements/1.1/"
   xmlns:cc="http://creativecommons.org/ns#"
   xmlns:rdf="http://www.w3.org/1999/02/22-rdf-syntax-ns#"
   xmlns:svg="http://www.w3.org/2000/svg"
   xmlns="http://www.w3.org/2000/svg"
   xmlns:sodipodi="http://sodipodi.sourceforge.net/DTD/sodipodi-0.dtd"
   xmlns:inkscape="http://www.inkscape.org/namespaces/inkscape"
   width="309px"
   height="152px"
   viewBox="0 0 309 152"
   version="1.1"
   id="svg8"
   sodipodi:docname="DataLabLogoBlack.svg"
   inkscape:version="1.0.1 (3bc2e813f5, 2020-09-07)">
  <metadata
     id="metadata14">
    <rdf:RDF>
      <cc:Work
         rdf:about="">
        <dc:format>image/svg+xml</dc:format>
        <dc:type
           rdf:resource="http://purl.org/dc/dcmitype/StillImage" />
        <dc:title>Group</dc:title>
      </cc:Work>
    </rdf:RDF>
  </metadata>
  <defs
     id="defs12" />
  <sodipodi:namedview
     pagecolor="#ffffff"
     bordercolor="#666666"
     borderopacity="1"
     objecttolerance="10"
     gridtolerance="10"
     guidetolerance="10"
     inkscape:pageopacity="0"
     inkscape:pageshadow="2"
     inkscape:window-width="1920"
     inkscape:window-height="1017"
     id="namedview10"
     showgrid="false"
     inkscape:zoom="3.3721683"
     inkscape:cx="146.11743"
     inkscape:cy="103.55515"
     inkscape:window-x="-8"
     inkscape:window-y="-8"
     inkscape:window-maximized="1"
     inkscape:current-layer="Page-2" />
  <title
     id="title2">Group</title>
  <g
     id="Page-2"
     stroke="none"
     stroke-width="1"
     fill="none"
     fill-rule="evenodd">
    <g
       id="Artboard-Copy"
       transform="translate(-100.000000, -6.000000)"
       fill="#35AFD5"
       fill-rule="nonzero">
      <g
         id="Group"
         transform="translate(100.000000, 6.000000)">
        <path
           d="M48,0 L48,50.304 L48.040916,55.668891 L47.950033,55.677562 L46.6386939,55.8175213 L45.9255692,55.900871 L45.8143969,55.915542 C23.9652352,58.951769 7.5,77.7148504 7.5,99.9895207 C7.5,124.566192 27.4233286,144.489521 52,144.489521 C63.7945578,144.489521 74.850976,139.884216 83.1068414,131.811186 L83.5172913,131.404651 L88.4750135,136.34641 C78.8766784,145.975749 65.8707068,151.489521 52,151.489521 C23.5573354,151.489521 0.5,128.432185 0.5,99.9895207 C0.5,75.5349665 17.6438798,54.7411444 40.9999076,49.6668368 L41,7 L32,7 L32,0 L48,0 Z M165.725133,87 C180.659525,87 185.571785,99.997962 185.668537,106.310769 L185.67,106.5 L185.67,125.401152 L179.21943,125.401152 L179.21943,120.31094 C176.401939,123.454894 171.804981,126 165.725133,126 C155.27076,126 146.67,117.466411 146.67,106.537428 C146.67,95.6084453 155.27076,87 165.725133,87 Z M100.725133,87 C115.659525,87 120.571785,99.997962 120.668537,106.310769 L120.67,106.5 L120.67,125.401152 L114.21943,125.401152 L114.21943,120.31094 C111.401939,123.454894 106.804981,126 100.725133,126 C90.2707605,126 81.67,117.466411 81.67,106.537428 C81.67,95.6084453 90.2707605,87 100.725133,87 Z M276.194715,74 L276.194715,92.030303 C279.160494,89.012987 283.683308,86.6580087 289.614867,86.6580087 C300.06924,86.6580087 308.67,95.1212121 308.67,105.865801 C308.67,116.61039 300.06924,125 289.614867,125 C281.830928,125 269.921189,119.162503 269.673914,106.275116 L269.67,105.865801 L269.67,74 L276.194715,74 Z M200.895734,74 L200.895734,118.373723 L226.67,118.373723 L226.67,125 L193.67,125 L193.67,74 L200.895734,74 Z M245.725133,86 C260.659525,86 265.571785,98.997962 265.668537,105.310769 L265.67,105.5 L265.67,124.401152 L259.21943,124.401152 L259.21943,119.31094 C256.401939,122.454894 251.804981,125 245.725133,125 C235.27076,125 226.67,116.466411 226.67,105.537428 C226.67,94.6084453 235.27076,86 245.725133,86 Z M52.76,74.31 C67.412,74.31 78.438,85.336 78.438,99.544 C78.438,113.68318 67.6314174,124.776209 53.1984648,124.996656 L52.76,125 L35,125 L35,74.31 L52.76,74.31 Z M135.658,77 L135.658,87.286 L145.574,87.286 L145.574,93.058 L135.658,93.058 L135.658,112.668 C135.658,117.45432 138.429714,118.900369 141.814049,118.956296 L142.022,118.958 L145.574,118.958 L145.574,124.73 L141.948,124.73 C134.582319,124.73 129.372756,121.136469 129.223301,113.028631 L129.22,112.668 L129.22,93.058 L123.67,93.058 L123.67,87.286 L129.22,87.286 L129.22,77 L135.658,77 Z M166.095856,93.1381958 C158.681407,93.1381958 153.046426,99.0518234 153.046426,106.537428 C153.046426,114.023033 158.681407,119.93666 166.095856,119.93666 C173.658593,119.93666 179.367719,114.097889 179.367719,106.537428 C179.367719,99.0518234 173.584449,93.1381958 166.095856,93.1381958 Z M101.095856,93.1381958 C93.6814068,93.1381958 88.0464259,99.0518234 88.0464259,106.537428 C88.0464259,114.023033 93.6814068,119.93666 101.095856,119.93666 C108.658593,119.93666 114.367719,114.097889 114.367719,106.537428 C114.367719,99.0518234 108.584449,93.1381958 101.095856,93.1381958 Z M289.244144,92.6926407 C281.755551,92.6926407 275.972281,98.5064935 275.972281,105.865801 C275.972281,113.298701 281.681407,119.038961 289.244144,119.038961 C296.658593,119.038961 302.293574,113.225108 302.293574,105.865801 C302.293574,98.5064935 296.658593,92.6926407 289.244144,92.6926407 Z M246.095856,92.1381958 C238.681407,92.1381958 233.046426,98.0518234 233.046426,105.537428 C233.046426,113.023033 238.681407,118.93666 246.095856,118.93666 C253.658593,118.93666 259.367719,113.097889 259.367719,105.537428 C259.367719,98.0518234 253.584449,92.1381958 246.095856,92.1381958 Z M52.464,80.896 L42.178,80.896 L42.178,118.414 L52.316,118.414 C63.416,118.414 71.26,110.2 71.26,99.692 C71.26,89.036 63.194,80.896 52.464,80.896 Z M72,0 L72,7 L62.9994923,7 L63.0003609,49.6793321 C72.3934241,51.7252087 80.9885914,56.3662817 87.8723853,63.0520566 L88.3188454,63.4909316 L83.3817065,68.4532556 C76.4855783,61.5921271 67.5443496,57.1475703 57.8192825,55.8771804 L57.1166971,55.791461 L56.0381427,55.6853811 L55.9874923,55.6803995 L55.9994923,50.98 L56,0 L72,0 Z"
           id="Combined-Shape"
           style="fill:#241f1c" />
      </g>
    </g>
  </g>
</svg>
