<?xml version="1.0" encoding="UTF-8"?>
<svg width="48px" height="48px" viewBox="0 0 48 48" version="1.1" xmlns="http://www.w3.org/2000/svg" xmlns:xlink="http://www.w3.org/1999/xlink">
    <!-- Generator: Sketch 48.2 (47327) - http://www.bohemiancoding.com/sketch -->
    <title>Semux logo@1x</title>
    <desc>Created with Sketch.</desc>
    <defs>
        <path d="M29.7957758,0.711249369 C16.905171,-2.4868069 3.91463892,5.40839451 0.7169695,18.2006196 C-2.48069993,31.0927839 5.3136193,44.0848875 18.2042242,47.2829438 C31.094829,50.481 44.0853611,42.6857379 47.2830305,29.7935736 C50.4806999,17.0013485 42.6863807,4.00924489 29.7957758,0.711249369 Z" id="path-1"></path>
    </defs>
    <g id="SEMUX-Copy-3" stroke="none" stroke-width="1" fill="none" fill-rule="evenodd" transform="translate(-168.000000, -29.000000)">
        <g id="Main-" transform="translate(-712.000000, -945.000000)">
            <g id="Semux-logo" transform="translate(880.000000, 974.000000)">
                <mask id="mask-2" fill="white">
                    <use xlink:href="#path-1"></use>
                </mask>
                <use id="Mask" fill="#F6F9FF" fill-rule="nonzero" xlink:href="#path-1"></use>
                <path d="M9.36939591,29.500556 C9.36939591,30.5036304 9.37651638,31.5071059 9.36730166,32.5105813 C9.35724924,33.6059017 9.85149326,34.3647248 10.905322,34.8303663 C14.8211588,36.5601783 18.7353201,38.294001 22.6318897,40.0635189 C23.5969221,40.5018877 24.473577,40.4966738 25.425625,40.0627168 C27.8893058,38.9397227 30.3735103,37.8572365 32.8447304,36.7486809 C33.0470353,36.6580392 33.393425,36.6383868 33.3641054,36.3472105 C33.3419063,36.1298309 33.0357264,36.1009539 32.8417984,36.014724 C28.3332877,34.0109817 23.8222639,32.0124532 19.3145909,30.0083098 C16.2645189,28.6522944 13.2203108,27.2858512 10.1702388,25.9314401 C9.47327093,25.6218145 9.37567867,25.6855846 9.36981476,26.4203436 C9.3618566,27.447081 9.36813936,28.4738185 9.36939591,29.500556" id="Page-1" fill="#EF674E" mask="url(#mask-2)"></path>
                <path d="M39.21718,17.297777 C39.21718,16.3191906 39.2088032,15.3402037 39.2192742,14.3616173 C39.2318394,13.2452921 38.7472415,12.4661067 37.6590951,11.9868236 C33.7412653,10.2606837 29.8318123,8.51652558 25.9315738,6.75394893 C24.9971417,6.33152313 24.1309805,6.33512677 23.2015744,6.75835337 C20.7371196,7.88068466 18.2542358,8.96457721 15.781823,10.0712928 C15.5707276,10.165788 15.229373,10.1998223 15.2197397,10.4516762 C15.2092687,10.7247514 15.5627697,10.7351619 15.7700955,10.8276552 C19.481856,12.4797204 23.1982237,14.1225764 26.9112407,15.7722392 C30.7348314,17.4715521 34.553815,19.1792735 38.3790811,20.8757835 C39.1392758,21.2129234 39.2100598,21.1628729 39.2150858,20.3736774 C39.2217873,19.3486442 39.2167612,18.3232106 39.21718,17.297777" id="Path" fill="#FFB600" mask="url(#mask-2)"></path>
                <path d="M9.96175632,16.6788884 C9.96175632,17.6448939 9.99153538,18.6124811 9.95378727,19.5769049 C9.9097478,20.7058225 10.4323495,21.4369498 11.5098484,21.9106603 C20.4863498,25.8573245 29.4553016,29.8186192 38.4276088,33.7735872 C39.1095914,34.0745001 39.1880235,34.0329813 39.1909595,33.3374415 C39.1997674,31.4742332 39.1326596,29.6086524 39.2148666,27.7482121 C39.2836521,26.1950113 38.5890868,25.3057168 37.0967781,24.6714668 C32.2264326,22.6018504 27.4001265,20.4401018 22.5603989,18.3060324 C18.6048161,16.5618448 14.6555245,14.8057947 10.7024582,13.0572576 C10.0229921,12.7571355 9.96804767,12.7883735 9.96259516,13.504475 C9.95420669,14.5626128 9.96049804,15.6207506 9.96175632,16.6788884" id="Path" fill="#E05A00" mask="url(#mask-2)"></path>
            </g>
        </g>
    </g>
</svg>