<?xml version="1.0" encoding="utf-8"?>
<!-- Generator: Adobe Illustrator 24.1.0, SVG Export Plug-In . SVG Version: 6.00 Build 0)  -->
<svg version="1.1" id="color" xmlns="http://www.w3.org/2000/svg" xmlns:xlink="http://www.w3.org/1999/xlink" x="0px" y="0px"
	 viewBox="0 0 668.3 195.1" style="enable-background:new 0 0 668.3 195.1;" xml:space="preserve">
<style type="text/css">
	.st0{fill:#A6AFBD;}
	.st1{fill:#FF3633;}
</style>
<g>
	<path class="st0" d="M89.8,53.3C81,45.9,68.8,41.6,56,41.6C25.1,41.6,0,66.4,0,97c0,26.9,21.2,56,55.4,56
		c14.9,0,25.3-3.2,34.3-10.9c-1.1,18.9-12.3,28.1-34.2,28.1c-7.9,0-19.4-2.7-29.6-15.5l-2.7-3.3L2.6,167.6l3,3.4
		c13.8,15.3,30,22.8,49.5,22.8c40,0,60.3-20.2,60.3-60V43.9H89.8V53.3z M58.4,129.3c-15.3,0-31.6-11.3-31.6-32.3
		c0-15.1,12-30.8,32.1-30.8c16.7,0,30.8,14.5,30.8,31.8C89.8,115.2,75.7,129.3,58.4,129.3z"/>
	<path class="st0" d="M187.4,69.4V41.6h-4.3c-11.4,0-19.8,0.7-27.4,8.1v-5.8h-25.7v107.9h25.7V91.1c0-15.1,7.1-23.8,19.6-23.8
		c2.1,0,4.4,0.3,6.9,0.8L187.4,69.4z"/>
	<path class="st0" d="M230.5,41.6c-12.4,0-24.7,2.6-37.5,8l-4.3,1.8l11.5,22.1l3.8-1.8c9-4.4,17.1-6.4,25.6-6.4
		c11.6,0,25.5,2.7,25.5,15.7v1.8c-7.7-4.6-16.7-7.1-26.4-7.1c-32.5,0-47.4,19.9-47.4,38.4c0,23.5,19.6,39.9,47.6,39.9
		c10.9,0,19.7-2.5,27.4-7.9v5.6h24.6V79.6C280.7,56.5,261,41.6,230.5,41.6z M231.8,130.5c-15.1,0-23.8-5.7-23.8-15.6
		s8.7-15.6,23.8-15.6c15.1,0,23.8,5.7,23.8,15.6S246.9,130.5,231.8,130.5z"/>
	<polygon class="st0" points="361.5,43.9 332.2,113.7 303.2,43.9 274.4,43.9 317.6,146 297.3,193.7 324.5,193.7 389.2,43.9 	"/>
</g>
<path class="st1" d="M411.9,0v118.9c0,11.7,5.8,15.7,11.5,15.7h5.4v16.7h-7.4c-16.5,0-27.5-9.4-27.5-31.1V0H411.9z"/>
<path class="st1" d="M488.3,45.2c32.6,0,56.1,25.1,56.1,54.3c0,29.7-22.3,54.2-56.1,54.2c-33.8,0-56.1-24.5-56.1-54.2
	C432.1,70.3,455.6,45.2,488.3,45.2z M451.2,99.5c0,19.9,17.1,37.4,37,37.4c19.9,0,37-17.5,37-37.4c0-21.5-17.1-37.6-37-37.6
	C468.4,61.9,451.2,78,451.2,99.5z"/>
<path class="st1" d="M650.4,47.6h17.9V137c0,38.2-18.3,58.1-58.5,58.1c-18.3,0-34.4-6.8-48.4-22.3l14.3-11.3
	c11,13.7,23.7,17.9,34.4,17.9c27.9,0,40.2-13.9,40.2-37V135H650c-9.8,11.7-19.9,17.5-40,17.5c-34.8,0-53.4-29.9-53.4-54
	c0-30.1,24.7-53.4,54-53.4c15.3,0,30.9,6.4,39.4,18.7h0.4V47.6z M613.8,61.9c-24.3,0-38,19.3-38,36.6c0,23.9,18.7,38.2,37.4,38.2
	c20.5,0,37.2-16.5,37.2-37.2C650.4,78.6,633.3,61.9,613.8,61.9z"/>
<path class="st0" d="M464.6,96.5c1.5,0,2.8,0.8,3.5,2.1h3.3l5.2-12.5c0.2-0.6,0.8-1.1,1.4-1.3c1.1-0.2,2.2,0.4,2.4,1.5l5.5,24.2
	l5.6-32.6h0c0.1-0.8,0.7-1.4,1.5-1.6c1.1-0.3,2.2,0.4,2.5,1.5l6,24.5l3.1-9.1c0.1-0.4,0.4-0.8,0.8-1.1c0.9-0.6,2.2-0.4,2.8,0.5
	l2.6,3.7c0.1,0.9,0.1,1.8,0.1,2.7c0,1.2-0.1,2.4-0.2,3.5c-0.4-0.1-0.7-0.4-1-0.7l0,0l-2.6-3.6l-4,12.1c-0.4,1.1-1.5,1.6-2.6,1.3
	c-0.7-0.2-1.2-0.8-1.3-1.4h0l-5.4-21.8l-5.7,33.1c-0.2,1.1-1.2,1.8-2.3,1.7c-0.9-0.1-1.5-0.8-1.7-1.7L478,93.5l-3.3,7.9
	c-0.3,0.8-1.1,1.3-1.9,1.3v0h-4.7c-0.7,1.2-2,2-3.5,2c-2.2,0-4.1-1.8-4.1-4.1C460.6,98.4,462.4,96.5,464.6,96.5z"/>
</svg>
